<?xml version="1.0" encoding="UTF-8"?>
<svg width="157px" height="74px" viewBox="0 0 157 74" version="1.1" xmlns="http://www.w3.org/2000/svg" xmlns:xlink="http://www.w3.org/1999/xlink">
    <title>EDE8EBD7-C767-4DAF-A887-286198A5ED5C</title>
    <g id="Final-UI" stroke="none" stroke-width="1" fill="none" fill-rule="evenodd">
        <g id="about-us-bg" transform="translate(-135.000000, -2984.000000)">
            <g id="Group-2" transform="translate(137.000000, 2984.000000)">
                <path d="M18.128,19 L19.376,15.664 L25.952,15.664 L27.272,19 L31.832,19 L24.776,2.008 L20.792,2.008 L13.664,19 L18.128,19 Z M24.824,12.376 L20.552,12.376 L22.712,6.544 L24.824,12.376 Z M40.52,19 L40.52,5.512 L45.32,5.512 L45.32,2.008 L31.616,2.008 L31.616,5.512 L36.416,5.512 L36.416,19 L40.52,19 Z M51.296,19 L51.296,11.896 L57.92,11.896 L57.92,19 L62.024,19 L62.024,2.008 L57.92,2.008 L57.92,8.44 L51.296,8.44 L51.296,2.008 L47.192,2.008 L47.192,19 L51.296,19 Z M77.384,19 L77.384,15.496 L69.488,15.496 L69.488,11.968 L76.544,11.968 L76.544,8.68 L69.488,8.68 L69.488,5.488 L76.952,5.488 L76.952,2.008 L65.528,2.008 L65.528,19 L77.384,19 Z M84.08,19 L83.984,7.888 L84.056,7.888 L90.896,19 L95.552,19 L95.552,2.008 L91.568,2.008 L91.664,13.096 L91.592,13.096 L84.776,2.008 L80.096,2.008 L80.096,19 L84.08,19 Z M101.432,19 L102.68,15.664 L109.256,15.664 L110.576,19 L115.136,19 L108.08,2.008 L104.096,2.008 L96.968,19 L101.432,19 Z M108.128,12.376 L103.856,12.376 L106.016,6.544 L108.128,12.376 Z M24.272,45.432 C25.52,45.432 26.672,45.304 27.728,45.048 C28.784,44.792 29.76,44.424 30.656,43.944 L30.656,43.944 L30.656,35.712 L24.536,35.712 L24.536,37.728 L28.304,37.728 L28.304,42.456 C27.808,42.728 27.224,42.936 26.552,43.08 C25.88,43.224 25.144,43.296 24.344,43.296 C23.336,43.296 22.424,43.12 21.608,42.768 C20.792,42.416 20.104,41.932 19.544,41.316 C18.984,40.7 18.552,39.976 18.248,39.144 C17.944,38.312 17.792,37.424 17.792,36.48 C17.792,35.552 17.944,34.676 18.248,33.852 C18.552,33.028 18.984,32.304 19.544,31.68 C20.104,31.056 20.784,30.564 21.584,30.204 C22.384,29.844 23.28,29.664 24.272,29.664 C25.248,29.664 26.132,29.832 26.924,30.168 C27.716,30.504 28.368,30.952 28.88,31.512 L28.88,31.512 L30.536,29.784 C29.832,29.112 28.948,28.576 27.884,28.176 C26.82,27.776 25.608,27.576 24.248,27.576 C22.952,27.576 21.752,27.792 20.648,28.224 C19.544,28.656 18.588,29.26 17.78,30.036 C16.972,30.812 16.34,31.748 15.884,32.844 C15.428,33.94 15.2,35.152 15.2,36.48 C15.2,37.792 15.424,38.996 15.872,40.092 C16.32,41.188 16.944,42.132 17.744,42.924 C18.544,43.716 19.5,44.332 20.612,44.772 C21.724,45.212 22.944,45.432 24.272,45.432 Z M44.696,45 L44.696,42.888 L37.112,42.888 L37.112,28.008 L34.736,28.008 L34.736,45 L44.696,45 Z M55.112,45.432 C56.408,45.432 57.608,45.212 58.712,44.772 C59.816,44.332 60.768,43.716 61.568,42.924 C62.368,42.132 62.996,41.188 63.452,40.092 C63.908,38.996 64.136,37.792 64.136,36.48 C64.136,35.152 63.908,33.94 63.452,32.844 C62.996,31.748 62.368,30.812 61.568,30.036 C60.768,29.26 59.816,28.656 58.712,28.224 C57.608,27.792 56.408,27.576 55.112,27.576 C53.816,27.576 52.62,27.792 51.524,28.224 C50.428,28.656 49.48,29.26 48.68,30.036 C47.88,30.812 47.256,31.748 46.808,32.844 C46.36,33.94 46.136,35.152 46.136,36.48 C46.136,37.792 46.36,38.996 46.808,40.092 C47.256,41.188 47.88,42.132 48.68,42.924 C49.48,43.716 50.428,44.332 51.524,44.772 C52.62,45.212 53.816,45.432 55.112,45.432 Z M55.112,43.296 C54.136,43.296 53.256,43.12 52.472,42.768 C51.688,42.416 51.016,41.932 50.456,41.316 C49.896,40.7 49.464,39.976 49.16,39.144 C48.856,38.312 48.704,37.424 48.704,36.48 C48.704,35.552 48.856,34.676 49.16,33.852 C49.464,33.028 49.892,32.304 50.444,31.68 C50.996,31.056 51.668,30.564 52.46,30.204 C53.252,29.844 54.136,29.664 55.112,29.664 C56.104,29.664 56.996,29.844 57.788,30.204 C58.58,30.564 59.256,31.056 59.816,31.68 C60.376,32.304 60.808,33.028 61.112,33.852 C61.416,34.676 61.568,35.552 61.568,36.48 C61.568,37.424 61.416,38.312 61.112,39.144 C60.808,39.976 60.376,40.7 59.816,41.316 C59.256,41.932 58.576,42.416 57.776,42.768 C56.976,43.12 56.088,43.296 55.112,43.296 Z M72.968,45 C73.848,45 74.676,44.9 75.452,44.7 C76.228,44.5 76.904,44.204 77.48,43.812 C78.056,43.42 78.512,42.92 78.848,42.312 C79.184,41.704 79.352,40.992 79.352,40.176 C79.352,39.584 79.26,39.048 79.076,38.568 C78.892,38.088 78.632,37.672 78.296,37.32 C77.96,36.968 77.56,36.684 77.096,36.468 C76.632,36.252 76.128,36.112 75.584,36.048 L75.584,36.048 L75.584,36 C76.48,35.76 77.2,35.32 77.744,34.68 C78.288,34.04 78.56,33.248 78.56,32.304 C78.56,31.488 78.404,30.808 78.092,30.264 C77.78,29.72 77.372,29.28 76.868,28.944 C76.364,28.608 75.792,28.368 75.152,28.224 C74.512,28.08 73.872,28.008 73.232,28.008 L73.232,28.008 L67.376,28.008 L67.376,45 L72.968,45 Z M72.848,35.184 L69.752,35.184 L69.752,30 L72.464,30 C73.6,30 74.504,30.196 75.176,30.588 C75.848,30.98 76.184,31.632 76.184,32.544 C76.184,33.008 76.096,33.404 75.92,33.732 C75.744,34.06 75.504,34.332 75.2,34.548 C74.896,34.764 74.54,34.924 74.132,35.028 C73.724,35.132 73.296,35.184 72.848,35.184 L72.848,35.184 Z M72.728,42.984 L69.752,42.984 L69.752,37.2 L72.944,37.2 C74.24,37.2 75.232,37.424 75.92,37.872 C76.608,38.32 76.952,39.048 76.952,40.056 C76.952,40.632 76.828,41.108 76.58,41.484 C76.332,41.86 76.004,42.16 75.596,42.384 C75.188,42.608 74.732,42.764 74.228,42.852 C73.724,42.94 73.224,42.984 72.728,42.984 L72.728,42.984 Z M83.48,45 L85.184,40.824 L93.248,40.824 L94.976,45 L97.664,45 L90.368,28.008 L88.208,28.008 L80.84,45 L83.48,45 Z M92.384,38.736 L86.024,38.736 L89.216,30.768 L92.384,38.736 Z M109.808,45 L109.808,42.888 L102.224,42.888 L102.224,28.008 L99.848,28.008 L99.848,45 L109.808,45 Z M27.32,71 L27.32,68.888 L18.44,68.888 L18.44,63.224 L26.456,63.224 L26.456,61.184 L18.44,61.184 L18.44,56.096 L26.96,56.096 L26.96,54.008 L16.064,54.008 L16.064,71 L27.32,71 Z M36.32,71 C37.408,71 38.496,70.828 39.584,70.484 C40.672,70.14 41.656,69.62 42.536,68.924 C43.416,68.228 44.128,67.348 44.672,66.284 C45.216,65.22 45.488,63.96 45.488,62.504 C45.488,61 45.216,59.712 44.672,58.64 C44.128,57.568 43.416,56.688 42.536,56 C41.656,55.312 40.672,54.808 39.584,54.488 C38.496,54.168 37.408,54.008 36.32,54.008 L36.32,54.008 L30.488,54.008 L30.488,71 L36.32,71 Z M35.84,68.912 L32.864,68.912 L32.864,56.072 L35.84,56.072 C36.864,56.072 37.812,56.212 38.684,56.492 C39.556,56.772 40.308,57.18 40.94,57.716 C41.572,58.252 42.064,58.92 42.416,59.72 C42.768,60.52 42.944,61.448 42.944,62.504 C42.944,63.512 42.768,64.416 42.416,65.216 C42.064,66.016 41.572,66.688 40.94,67.232 C40.308,67.776 39.556,68.192 38.684,68.48 C37.812,68.768 36.864,68.912 35.84,68.912 L35.84,68.912 Z M55.232,71.432 C56.352,71.432 57.328,71.244 58.16,70.868 C58.992,70.492 59.68,69.992 60.224,69.368 C60.768,68.744 61.172,68.028 61.436,67.22 C61.7,66.412 61.832,65.576 61.832,64.712 L61.832,64.712 L61.832,54.008 L59.456,54.008 L59.456,64.568 C59.456,65.144 59.384,65.716 59.24,66.284 C59.096,66.852 58.86,67.36 58.532,67.808 C58.204,68.256 57.768,68.616 57.224,68.888 C56.68,69.16 56.016,69.296 55.232,69.296 C54.432,69.296 53.764,69.16 53.228,68.888 C52.692,68.616 52.26,68.256 51.932,67.808 C51.604,67.36 51.368,66.852 51.224,66.284 C51.08,65.716 51.008,65.144 51.008,64.568 L51.008,64.568 L51.008,54.008 L48.632,54.008 L48.632,64.712 C48.632,65.576 48.764,66.412 49.028,67.22 C49.292,68.028 49.696,68.744 50.24,69.368 C50.784,69.992 51.472,70.492 52.304,70.868 C53.136,71.244 54.112,71.432 55.232,71.432 Z M73.928,71.432 C75.432,71.432 76.72,71.148 77.792,70.58 C78.864,70.012 79.736,69.272 80.408,68.36 L80.408,68.36 L78.512,67.064 C78,67.8 77.352,68.36 76.568,68.744 C75.784,69.128 74.912,69.32 73.952,69.32 C72.976,69.32 72.092,69.144 71.3,68.792 C70.508,68.44 69.836,67.956 69.284,67.34 C68.732,66.724 68.308,66 68.012,65.168 C67.716,64.336 67.568,63.44 67.568,62.48 C67.568,61.552 67.72,60.676 68.024,59.852 C68.328,59.028 68.76,58.304 69.32,57.68 C69.88,57.056 70.556,56.564 71.348,56.204 C72.14,55.844 73.032,55.664 74.024,55.664 C74.904,55.664 75.724,55.852 76.484,56.228 C77.244,56.604 77.832,57.08 78.248,57.656 L78.248,57.656 L80.12,56.216 C79.8,55.784 79.416,55.404 78.968,55.076 C78.52,54.748 78.024,54.472 77.48,54.248 C76.936,54.024 76.368,53.856 75.776,53.744 C75.184,53.632 74.6,53.576 74.024,53.576 C72.728,53.576 71.528,53.792 70.424,54.224 C69.32,54.656 68.364,55.26 67.556,56.036 C66.748,56.812 66.116,57.748 65.66,58.844 C65.204,59.94 64.976,61.152 64.976,62.48 C64.976,63.792 65.2,64.996 65.648,66.092 C66.096,67.188 66.716,68.132 67.508,68.924 C68.3,69.716 69.244,70.332 70.34,70.772 C71.436,71.212 72.632,71.432 73.928,71.432 Z M83.528,71 L85.232,66.824 L93.296,66.824 L95.024,71 L97.712,71 L90.416,54.008 L88.256,54.008 L80.888,71 L83.528,71 Z M92.432,64.736 L86.072,64.736 L89.264,56.768 L92.432,64.736 Z M105.848,71 L105.848,56.096 L111.296,56.096 L111.296,54.008 L98.024,54.008 L98.024,56.096 L103.472,56.096 L103.472,71 L105.848,71 Z M115.928,71 L115.928,54.008 L113.552,54.008 L113.552,71 L115.928,71 Z M128.168,71.432 C129.464,71.432 130.664,71.212 131.768,70.772 C132.872,70.332 133.824,69.716 134.624,68.924 C135.424,68.132 136.052,67.188 136.508,66.092 C136.964,64.996 137.192,63.792 137.192,62.48 C137.192,61.152 136.964,59.94 136.508,58.844 C136.052,57.748 135.424,56.812 134.624,56.036 C133.824,55.26 132.872,54.656 131.768,54.224 C130.664,53.792 129.464,53.576 128.168,53.576 C126.872,53.576 125.676,53.792 124.58,54.224 C123.484,54.656 122.536,55.26 121.736,56.036 C120.936,56.812 120.312,57.748 119.864,58.844 C119.416,59.94 119.192,61.152 119.192,62.48 C119.192,63.792 119.416,64.996 119.864,66.092 C120.312,67.188 120.936,68.132 121.736,68.924 C122.536,69.716 123.484,70.332 124.58,70.772 C125.676,71.212 126.872,71.432 128.168,71.432 Z M128.168,69.296 C127.192,69.296 126.312,69.12 125.528,68.768 C124.744,68.416 124.072,67.932 123.512,67.316 C122.952,66.7 122.52,65.976 122.216,65.144 C121.912,64.312 121.76,63.424 121.76,62.48 C121.76,61.552 121.912,60.676 122.216,59.852 C122.52,59.028 122.948,58.304 123.5,57.68 C124.052,57.056 124.724,56.564 125.516,56.204 C126.308,55.844 127.192,55.664 128.168,55.664 C129.16,55.664 130.052,55.844 130.844,56.204 C131.636,56.564 132.312,57.056 132.872,57.68 C133.432,58.304 133.864,59.028 134.168,59.852 C134.472,60.676 134.624,61.552 134.624,62.48 C134.624,63.424 134.472,64.312 134.168,65.144 C133.864,65.976 133.432,66.7 132.872,67.316 C132.312,67.932 131.632,68.416 130.832,68.768 C130.032,69.12 129.144,69.296 128.168,69.296 Z M142.808,71 L142.808,57.128 L142.856,57.128 L151.832,71 L154.832,71 L154.832,54.008 L152.456,54.008 L152.456,67.592 L152.408,67.592 L143.528,54.008 L140.432,54.008 L140.432,71 L142.808,71 Z" id="ATHENAGLOBALEDUCATION" fill="#373737" fill-rule="nonzero"></path>
                <line x1="0.875" y1="71.5" x2="0.5" y2="2.75" id="Path-2-Copy" stroke="#FFC100" stroke-width="4" stroke-linecap="square"></line>
                <g id="upload-copy-4" transform="translate(125.500000, 10.500000) scale(1, -1) rotate(90.000000) translate(-125.500000, -10.500000) translate(115.000000, 3.000000)" fill="#FFC100" fill-rule="nonzero">
                    <path d="M10.4795841,0.111616115 C10.306986,-0.0372053717 10.0271825,-0.0372053717 9.85454305,0.111616115 L0.129960832,8.49858611 C0.046790554,8.57010191 -4.58727387e-06,8.66720757 -4.58727387e-06,8.76849482 L-4.58727387e-06,13.8180809 C-0.000451158603,14.0286254 0.197135232,14.1996057 0.441258854,14.1999994 C0.558948734,14.2001775 0.671873004,14.1598628 0.755001842,14.0879896 L10.1666699,5.970142 L19.5783379,14.0879896 C19.7507287,14.2370612 20.0306151,14.2373472 20.2034618,14.0886686 C20.2867978,14.0169741 20.3335423,13.9195825 20.3333375,13.8180809 L20.3333375,8.76849482 C20.3335423,8.66731479 20.2871293,8.57020913 20.2042491,8.49858611 L10.4795841,0.111616115 Z" id="Path"></path>
                </g>
            </g>
        </g>
    </g>
</svg>